<svg width="30" height="30" viewBox="0 0 30 30" fill="none" xmlns="http://www.w3.org/2000/svg">
<path d="M30 15.3407C30 14.318 29.9147 13.2991 29.7364 12.2908H15.302V18.0665H23.5683C23.2266 19.9299 22.1236 21.5784 20.5122 22.623V26.3753H25.4472C28.3364 23.7694 30 19.908 30 15.3407Z" fill="#4285F4"/>
<path d="M15.3022 30C19.4318 30 22.9113 28.6716 25.4474 26.3788L20.5124 22.6265C19.1383 23.54 17.3707 24.0604 15.3022 24.0604C11.3103 24.0604 7.92351 21.4221 6.70928 17.8699H1.62933V21.7348C4.22866 26.8047 9.51671 30 15.3022 30Z" fill="#34A853"/>
<path d="M6.71297 17.8695C6.07065 16.0099 6.07065 13.99 6.71297 12.1268V8.26538H1.62943C-0.543142 12.5051 -0.543142 17.4983 1.62943 21.7383L6.71297 17.8695Z" fill="#FBBC04"/>
<path d="M15.3022 5.94015C17.4858 5.90739 19.5913 6.71183 21.1732 8.18941L25.544 3.90939C22.7738 1.36199 19.1049 -0.0392346 15.3022 0.000836335C9.51671 0.000836335 4.22506 3.1997 1.62933 8.26578L6.71288 12.1307C7.92351 8.575 11.3103 5.94015 15.3022 5.94015Z" fill="#EA4335"/>
</svg>
